<?xml version="1.0" encoding="UTF-8"?>
<!DOCTYPE svg PUBLIC "-//W3C//DTD SVG 1.1//EN" "http://www.w3.org/Graphics/SVG/1.1/DTD/svg11.dtd">
<!-- Creator: CorelDRAW 2020 (64-Bit) -->
<svg xmlns="http://www.w3.org/2000/svg" xml:space="preserve" width="200px" height="448px" version="1.1" shape-rendering="geometricPrecision" text-rendering="geometricPrecision" image-rendering="optimizeQuality" fill-rule="evenodd" clip-rule="evenodd"
viewBox="0 0 201 449"
 xmlns:xlink="http://www.w3.org/1999/xlink"
 xmlns:xodm="http://www.corel.com/coreldraw/odm/2003"
 enable-background="new 0 0 52 52">
 <g id="Layer_x0020_1">
  <metadata id="CorelCorpID_0Corel-Layer"/>
  <rect id="RECT" fill="#E6E7E8" x="2" width="197" height="449"/>
  <text x="21" y="382" id="TEXT2" fill="black" font-weight="normal" font-size="21px" font-family="Arial">WORDS BELOW</text>
  <text x="24" y="64" id="TEXT1" fill="black" font-weight="normal" font-size="21px" font-family="Arial">WORDS ABOVE</text>
  <g id="_2112024719456">
   <g>
    <g>
     <g>
      <path fill="#0096E6" fill-rule="nonzero" d="M100 273c-12,0 -21,10 -21,21 0,12 9,21 21,21 12,0 21,-9 21,-21 0,-12 -9,-21 -21,-21zm0 34c-7,0 -13,-6 -13,-13 0,-7 6,-13 13,-13 7,0 13,6 13,13 0,7 -6,13 -13,13z"/>
     </g>
     <g>
      <path fill="#D0E8F9" fill-rule="nonzero" d="M113 294c0,7 -6,13 -13,13 -7,0 -13,-6 -13,-13 0,-7 6,-13 13,-13 7,0 13,6 13,13z"/>
     </g>
    </g>
    <g>
     <g>
      <path fill="#0096E6" fill-rule="nonzero" d="M131 275c-8,-10 -19,-15 -31,-15 -11,0 -22,5 -31,14l-6 -6c10,-11 23,-17 37,-17 14,0 27,7 37,18l-6 5z"/>
     </g>
    </g>
    <g>
     <g>
      <path fill="#0096E6" fill-rule="nonzero" d="M148 248c-13,-15 -29,-24 -47,-24 -18,0 -35,7 -48,22l-6 -6c15,-16 34,-25 54,-25 20,0 40,10 54,27l-7 5z"/>
     </g>
    </g>
    <g>
     <g>
      <path fill="#0096E6" fill-rule="nonzero" d="M173 222c-19,-20 -45,-32 -73,-32 -28,0 -54,10 -74,30l-6 -6c22,-21 50,-33 80,-32 30,1 58,13 79,35l-6 6z"/>
     </g>
    </g>
    <g>
     <g>
      <path fill="#0096E6" fill-rule="nonzero" d="M194 196c-25,-26 -58,-40 -94,-41 -36,-1 -69,13 -95,38l-6 -6c27,-26 63,-41 101,-40 38,1 73,16 100,44l-6 6z"/>
     </g>
    </g>
   </g>
  </g>
 </g>
</svg>
