<?xml version="1.0" encoding="UTF-8"?>
<!DOCTYPE svg PUBLIC "-//W3C//DTD SVG 1.1//EN" "http://www.w3.org/Graphics/SVG/1.1/DTD/svg11.dtd">
<!-- Creator: CorelDRAW 2020 (64-Bit) -->
<svg xmlns="http://www.w3.org/2000/svg" xml:space="preserve" width="200px" height="456px" version="1.1" shape-rendering="geometricPrecision" text-rendering="geometricPrecision" image-rendering="optimizeQuality" fill-rule="evenodd" clip-rule="evenodd"
viewBox="0 0 201 458"
 xmlns:xlink="http://www.w3.org/1999/xlink"
 xmlns:xodm="http://www.corel.com/coreldraw/odm/2003">
 <g id="Layer_x0020_1">
  <metadata id="CorelCorpID_0Corel-Layer"/>
  <rect fill="#E6E7E8" width="201" height="458"/>
  <g id="_2112103233744">
   <polygon fill="#008052" fill-rule="nonzero" points="52,180 102,161 102,99 77,124 87,149 70,162 36,134 "/>
   <polygon fill="#009856" fill-rule="nonzero" points="153,180 102,161 102,99 128,124 118,149 134,162 168,134 "/>
   <path fill="#008052" fill-rule="nonzero" d="M36 194l13 74c1,5 3,9 7,12l47 46 0 -151 -66 19 0 0z"/>
   <path fill="#009856" fill-rule="nonzero" d="M102 175l0 151 47 -46c3,-3 6,-7 7,-12l13 -74 -66 -19 0 0z"/>
   <polygon fill="#848688" fill-rule="nonzero" points="17,360 11,360 11,335 17,335 "/>
   <polygon fill="#848688" fill-rule="nonzero" points="22,360 22,335 29,335 40,351 40,335 47,335 47,360 40,360 29,345 29,360 "/>
   <polygon fill="#848688" fill-rule="nonzero" points="61,341 61,360 55,360 55,341 50,341 50,335 67,335 67,341 "/>
   <polygon fill="#848688" fill-rule="nonzero" points="83,341 76,341 76,345 83,345 83,350 76,350 76,355 83,355 83,360 69,360 69,335 83,335 "/>
   <path fill="#848688" fill-rule="nonzero" d="M100 346l13 0c0,1 0,2 0,4 0,1 0,2 -1,3 0,1 -1,2 -2,3 -1,1 -2,2 -3,2 -1,1 -2,1 -4,2 -1,0 -3,1 -4,1 -2,0 -4,0 -5,-1 -2,-1 -3,-2 -4,-3 -1,-1 -2,-2 -3,-4 -1,-2 -1,-3 -1,-5 0,-2 0,-4 1,-5 1,-2 1,-3 3,-4 1,-1 2,-2 4,-3 2,-1 3,-1 5,-1 3,0 5,1 7,2 2,1 3,3 5,5l-6 2c-1,-1 -1,-2 -2,-3 -1,-1 -2,-1 -3,-1 -1,0 -2,0 -3,1 -1,0 -1,1 -2,2 -1,1 -1,1 -1,2 0,1 0,2 0,3 0,1 0,2 0,3 0,1 1,2 1,2 1,1 1,1 2,2 1,0 2,1 3,1 1,0 1,0 2,0 1,0 1,0 2,-1 0,0 1,-1 1,-1 0,0 1,-1 1,-2l-5 0 0 -5 0 0z"/>
   <path fill="#848688" fill-rule="nonzero" d="M123 346l1 0c1,0 2,0 3,-1 1,-1 1,-1 1,-2 0,-1 0,-2 -1,-2 -1,-1 -2,-1 -3,-1l-1 0 0 6zm14 14l-8 0 -6 -9 0 9 -6 0 0 -25 10 0c1,0 3,0 4,1 1,0 2,1 3,2 1,1 1,1 1,2 0,1 1,2 1,3 0,2 0,3 -1,5 -1,1 -2,2 -4,2l8 10 0 0z"/>
   <polygon fill="#848688" fill-rule="nonzero" points="147,360 140,360 140,335 147,335 "/>
   <polygon fill="#848688" fill-rule="nonzero" points="161,341 161,360 155,360 155,341 149,341 149,335 166,335 166,341 "/>
   <polygon fill="#848688" fill-rule="nonzero" points="177,348 168,335 175,335 180,342 185,335 192,335 183,348 183,360 177,360 "/>
   <polygon fill="#FEFEFE" fill-rule="nonzero" points="117,211 117,193 111,193 89,193 83,193 83,211 89,211 89,258 83,258 83,276 89,276 111,276 117,276 117,258 111,258 111,211 "/>
  </g>
 </g>
</svg>
