<?xml version="1.0" encoding="UTF-8"?>
<!DOCTYPE svg PUBLIC "-//W3C//DTD SVG 1.1//EN" "http://www.w3.org/Graphics/SVG/1.1/DTD/svg11.dtd">
<!-- Creator: CorelDRAW 2020 (64-Bit) -->
<svg xmlns="http://www.w3.org/2000/svg" xml:space="preserve" width="200px" height="456px" version="1.1" shape-rendering="geometricPrecision" text-rendering="geometricPrecision" image-rendering="optimizeQuality" fill-rule="evenodd" clip-rule="evenodd"
viewBox="0 0 201 458"
 xmlns:xlink="http://www.w3.org/1999/xlink"
 xmlns:xodm="http://www.corel.com/coreldraw/odm/2003">
 <g id="Layer_x0020_1">
  <metadata id="CorelCorpID_0Corel-Layer"/>
  <rect id="RECT" fill="#E6E7E8" width="201" height="458"/>
  <text x="47" y="411" id="TEXT2" fill="black" font-weight="normal" font-size="22px" font-family="Arial">INTERNET</text>
  <text x="46" y="71" id="TEXT1" fill="black" font-weight="normal" font-size="21px" font-family="Arial">INTERNET</text>
  <g id="_1726414493456">
   <g>
    <g>
     <path fill="black" fill-rule="nonzero" d="M174 283c44,-60 2,-147 -74,-148 0,0 0,0 0,0 0,0 0,0 0,0 0,0 0,0 0,0 0,0 0,0 0,0 0,0 -1,0 -1,0 0,0 0,0 0,0 0,0 0,0 0,0 0,0 0,0 0,0 0,0 0,0 0,0 -51,0 -92,42 -92,93 0,51 41,93 93,93 16,0 33,-4 48,-13l12 12c2,2 5,2 7,0l19 -19c2,-2 2,-5 0,-7l-11 -11zm-103 -133c-8,9 -14,21 -18,36l-25 0c10,-17 25,-29 43,-36zm-48 45l28 0c-2,9 -3,18 -3,28l-31 0c1,-10 3,-19 7,-28zm-7 38l31 0c0,10 1,19 3,28l-28 0c-4,-9 -6,-18 -7,-28zm11 38l25 0c4,15 11,27 18,36 -18,-7 -33,-19 -43,-36zm67 40c-13,-3 -25,-18 -32,-40l32 0 0 40zm0 -50l-35 0c-2,-9 -3,-18 -4,-28l38 0c0,14 0,22 0,28zm0 -38l-38 0c0,-10 1,-19 4,-28l35 0 0 28 0 0zm0 -38l-32 0c7,-22 19,-37 32,-40l0 40 0 0zm81 75l-5 0 4 -4c3,-3 1,-7 -2,-8l-22 -6c0,-3 1,-7 1,-10l31 0c-1,10 -3,19 -7,28zm7 -38l-31 0c0,-10 -1,-19 -3,-28l28 0c4,9 6,18 7,28zm-11 -38l-25 0c-4,-15 -11,-27 -18,-36 18,7 33,19 43,36zm-67 -40c13,3 25,18 32,40l-32 0 0 -40zm0 50l35 0c2,9 3,18 4,28l-38 0 0 -28 0 0zm38 38c0,3 0,5 0,8l-29 -8 30 0zm-38 78l0 -40 0 0 10 36c-3,2 -6,4 -10,5zm23 -4c2,-2 4,-5 6,-8l2 -2 4 4c-4,2 -8,4 -13,6zm35 3l-23 -23c-2,-2 -5,-2 -7,0 -7,7 -5,5 -11,11l-15 -57c24,6 50,13 57,15l-11 11c-2,2 -2,5 0,7l23 23 -13 13zm9 -39c-1,2 -2,4 -4,6l-6 -6 0 0 9 0z"/>
    </g>
   </g>
   <g>
   </g>
   <g>
   </g>
   <g>
   </g>
   <g>
   </g>
   <g>
   </g>
   <g>
   </g>
   <g>
   </g>
   <g>
   </g>
   <g>
   </g>
   <g>
   </g>
   <g>
   </g>
   <g>
   </g>
   <g>
   </g>
   <g>
   </g>
   <g>
   </g>
  </g>
 </g>
</svg>
