<?xml version="1.0" encoding="UTF-8"?>
<!DOCTYPE svg PUBLIC "-//W3C//DTD SVG 1.1//EN" "http://www.w3.org/Graphics/SVG/1.1/DTD/svg11.dtd">
<!-- Creator: CorelDRAW 2020 (64-Bit) -->
<svg xmlns="http://www.w3.org/2000/svg" xml:space="preserve" width="200px" height="456px" version="1.1" shape-rendering="geometricPrecision" text-rendering="geometricPrecision" image-rendering="optimizeQuality" fill-rule="evenodd" clip-rule="evenodd"
viewBox="0 0 201 458"
 xmlns:xlink="http://www.w3.org/1999/xlink"
 xmlns:xodm="http://www.corel.com/coreldraw/odm/2003">
 <g id="Layer_x0020_1">
  <metadata id="CorelCorpID_0Corel-Layer"/>
  <rect id="RECT" fill="#E6E7E8" width="201" height="458"/>
  <text x="23" y="65" id="TEXT1" fill="black" font-weight="normal" font-size="21px" font-family="Arial"></text>
  <text x="44" y="400" id="TEXT2" fill="black" font-weight="normal" font-size="22px" font-family="Arial">  Attendance</text>
  <g id="_2112161835952">
   <g id="handindielug">
    <path id="lyfenbank" fill="#010101" d="M82 230c-9,1 -33,-2 -39,1 -5,2 -8,11 -5,19 3,7 9,5 16,6l0 70c0,3 -1,7 1,9 2,2 4,1 5,-2 2,-5 1,-66 1,-78l20 0c-4,13 -16,57 -17,63 -2,8 3,16 9,16 6,-1 8,-8 10,-16l17 -63 9 0c0,16 0,30 0,46 1,14 -2,33 9,34 12,1 9,-19 9,-33 0,-16 0,-31 0,-47l12 0 0 63c0,6 -2,17 4,17 5,0 4,-11 4,-16l0 -64c7,-1 17,2 16,-14 -1,-16 -19,-9 -37,-11l0 -34c1,1 0,0 1,1 6,6 12,19 19,13 2,-2 10,-20 12,-25 1,-3 4,-9 4,-14 -1,-6 -4,-9 -9,-9 -4,2 -5,7 -7,11 -2,3 -5,9 -6,13 -4,-2 -12,-17 -19,-19 -6,-2 -24,0 -32,-1 -1,-2 -1,-2 -3,-5l-27 -42c-8,-12 -14,-2 -14,5 0,6 7,14 11,20l24 38c4,6 3,3 3,14 0,12 0,24 0,35l-2 -1z"/>
    <path id="kop" fill="#010101" d="M99 120c-20,6 -12,47 6,41 7,-2 14,-12 12,-25 -1,-11 -9,-19 -18,-16z"/>
   </g>
  </g>
 </g>
</svg>
