<?xml version="1.0" encoding="UTF-8"?>
<!DOCTYPE svg PUBLIC "-//W3C//DTD SVG 1.1//EN" "http://www.w3.org/Graphics/SVG/1.1/DTD/svg11.dtd">
<!-- Creator: CorelDRAW 2020 (64-Bit) -->
<svg xmlns="http://www.w3.org/2000/svg" xml:space="preserve" width="200px" height="456px" version="1.1" shape-rendering="geometricPrecision" text-rendering="geometricPrecision" image-rendering="optimizeQuality" fill-rule="evenodd" clip-rule="evenodd"
viewBox="0 0 201 458"
 xmlns:xlink="http://www.w3.org/1999/xlink"
 xmlns:xodm="http://www.corel.com/coreldraw/odm/2003">
 <g id="Layer_x0020_1">
  <metadata id="CorelCorpID_0Corel-Layer"/>
  <rect id="RECT" fill="#E6E7E8" width="201" height="458"/>
  <path id="bubbles" fill="black" d="M10 239l0 17 0 0c0,0 0,0 0,0 2,6 1,5 3,13 2,6 10,17 15,21 9,7 11,9 23,13 2,1 3,1 4,1 0,0 0,0 0,0l0 0 24 0 0 0c2,0 2,0 5,-1 5,-2 5,-2 9,-4 2,-1 3,-1 4,-2l11 -9c3,-3 7,-7 9,-11 1,-1 2,-3 2,-4 1,-2 1,-3 2,-5 2,-7 3,-9 4,-16l1 -6c6,0 12,-1 18,-3 1,0 2,0 3,-1 10,-4 17,-9 24,-17 1,-1 2,-2 3,-4 4,-5 8,-14 9,-20 0,-2 1,-4 1,-6 0,-2 0,-6 1,-7l0 -3 0 -2c0,-8 -2,-15 -5,-22 -1,-2 -1,-3 -2,-5 -1,-1 -1,-1 -1,-2 -3,-3 -7,-9 -10,-11 -4,-3 -5,-5 -10,-8 -1,0 -2,-1 -2,-1 -7,-3 -12,-5 -19,-6 -4,0 -3,0 -5,0l-1 0c0,0 0,0 0,0l-2 0c-1,0 -4,0 -6,1 -5,1 -12,2 -17,5 -1,0 -2,0 -2,1 -5,2 -11,7 -15,11 -1,1 -2,2 -3,4 -1,1 -1,1 -2,2 -1,2 -5,7 -5,9 -4,8 -5,10 -6,20l-1 7c-1,0 -2,0 -3,0 -1,0 -2,0 -3,0 -12,2 -13,2 -23,7l-4 2c-7,5 -13,12 -18,20 -4,7 -5,12 -7,19 0,0 0,1 0,1 0,0 0,0 0,0l0 0 0 0z"/>
  <path id="monitor" fill="white" d="M94 152l0 48c0,2 2,4 4,4l22 0c0,5 1,9 -3,11 -7,5 -14,2 -17,3 -3,1 -2,7 1,7l52 0c4,0 3,-4 3,-5 0,-4 -7,-2 -13,-3 -10,-2 -9,-8 -9,-14l22 0c2,0 4,-2 4,-4l0 -48c0,-2 -1,-4 -4,-4l-59 0c-3,0 -4,2 -4,4l0 0z"/>
  <polygon id="insidescreen" fill="black" points="102,192 153,192 153,156 102,156 "/>
  <path id="lyf" fill="white" d="M29 255l0 30 41 0 0 -25c2,1 4,4 6,6 1,1 3,4 6,4l16 0c2,0 6,-3 4,-8 1,-1 3,-3 4,-4 1,-1 1,0 1,-1 1,-1 0,0 1,-1l8 -7c1,-1 3,-3 3,-4 0,-2 -1,-3 -3,-2 -1,0 -6,6 -7,7l-10 10c-3,-1 -9,-1 -12,-1 -4,0 -3,0 -4,-2 -3,-3 -10,-12 -12,-14 -1,-1 -3,-2 -5,-2l-24 0c-3,0 -7,3 -10,5 -1,1 -2,3 -3,4 -1,1 -2,5 -2,5l0 0z"/>
  <path id="kop" fill="white" d="M41 225c0,2 0,4 1,7 1,2 3,4 5,5 2,1 8,1 10,0 11,-6 6,-18 0,-21 -6,-2 -13,0 -15,5 0,0 -1,3 -1,4l0 0z"/>
  <text x="19" y="389" id="TEXT2" fill="black" font-weight="normal" font-size="22px" font-family="Arial"></text>
  <text x="23" y="65" id="TEXT1" fill="black" font-weight="normal" font-size="21px" font-family="Arial"></text>
 </g>
</svg>
