<?xml version="1.0" encoding="UTF-8"?>
<!DOCTYPE svg PUBLIC "-//W3C//DTD SVG 1.1//EN" "http://www.w3.org/Graphics/SVG/1.1/DTD/svg11.dtd">
<!-- Creator: CorelDRAW 2020 (64-Bit) -->
<svg xmlns="http://www.w3.org/2000/svg" xml:space="preserve" width="210px" height="479px" version="1.1" shape-rendering="geometricPrecision" text-rendering="geometricPrecision" image-rendering="optimizeQuality" fill-rule="evenodd" clip-rule="evenodd"
viewBox="0 0 211 480"
 xmlns:xlink="http://www.w3.org/1999/xlink"
 xmlns:xodm="http://www.corel.com/coreldraw/odm/2003">
 <g id="Layer_x0020_1">
  <metadata id="CorelCorpID_0Corel-Layer"/>
  <rect id="RECT" fill="#E6E7E8" width="211" height="480"/>
  <text x="42" y="411" id="TEXT2" fill="black" font-weight="normal" font-size="23px" font-family="Arial"></text>
  <text x="52" y="70" id="TEXT1" fill="black" font-weight="normal" font-size="22px" font-family="Arial"></text>
  <g id="mainicon">
     <path fill="black" fill-rule="nonzero" d="M193 118l-177 112c-12,8 -9,27 5,30l47 11 -3 60c0,6 6,9 11,5l29 -25 25 29c9,10 26,6 29,-7l45 -209c1,-6 -5,-10 -10,-7zm-121 141l-49 -12c-3,-1 -4,-5 -1,-6l141 -89c-1,1 -89,105 -91,107zm6 58l2 -34 16 19 -18 15zm67 14c-1,3 -4,4 -6,2l-56 -66 102 -119 -40 184z"/>
  </g>
 </g>
</svg>
