<?xml version="1.0" encoding="UTF-8"?>
<!DOCTYPE svg PUBLIC "-//W3C//DTD SVG 1.1//EN" "http://www.w3.org/Graphics/SVG/1.1/DTD/svg11.dtd">
<!-- Creator: CorelDRAW 2020 (64-Bit) -->
<svg xmlns="http://www.w3.org/2000/svg" xml:space="preserve" width="200px" height="456px" version="1.1" shape-rendering="geometricPrecision" text-rendering="geometricPrecision" image-rendering="optimizeQuality" fill-rule="evenodd" clip-rule="evenodd"
viewBox="0 0 201 458"
 xmlns:xlink="http://www.w3.org/1999/xlink"
 xmlns:xodm="http://www.corel.com/coreldraw/odm/2003">
 <g id="Layer_x0020_1">
  <metadata id="CorelCorpID_0Corel-Layer"/>
  <rect id="RECT" fill="#E6E7E8" width="201" height="458"/>
  <text x="19" y="389" id="TEXT2" fill="black" font-weight="normal" font-size="22px" font-family="Arial">WORDS BELOW</text>
  <text x="23" y="65" id="TEXT1" fill="black" font-weight="normal" font-size="21px" font-family="Arial">WORDS ABOVE</text>
  <g id="_2147248547376">
   <g id="_2111637397920">
    <path id="Lyf" fill="black" d="M24 262l0 3c2,4 2,7 9,10 5,2 10,5 15,3 6,-2 8,-8 6,-12 -3,-6 -10,-7 -10,-9l0 -40c9,2 52,20 55,20 1,0 35,-12 42,-15 5,-2 10,-4 14,-5l0 40c0,1 -3,2 -6,4 -10,8 -5,15 0,18 5,2 10,0 15,-3 8,-4 8,-6 9,-10l0 -4c-1,-1 -2,-10 -3,-13 -3,-11 -8,-26 -13,-35 -4,-7 -9,-11 -18,-14 -6,-3 -21,-6 -27,-5l-12 32 -12 -32c-7,0 -22,3 -27,5 -9,3 -14,8 -18,15 -5,9 -10,25 -13,36 -1,3 -2,12 -3,13l-2 -2z"/>
    <path id="Kop" fill="black" d="M94 122c-17,2 -32,18 -29,38 3,17 18,31 38,28 17,-2 31,-18 29,-38 -3,-17 -18,-31 -38,-29l0 1z"/>
    <path fill="black" d="M81 299l6 2 3 1 8 3 0 -65 -49 -18 0 33c4,3 8,4 10,9 1,2 1,3 2,5 0,9 -6,12 -12,14l0 5 34 12 -1 0z"/>
    <path id="Boek2" fill="black" d="M100 239l0 65 8 -3 4 -1 3 -1c6,-2 11,-4 17,-7 3,-1 15,-5 18,-7l0 -5c-7,-2 -12,-5 -12,-13 0,-3 1,-5 3,-7 1,-1 1,-1 2,-2 3,-3 5,-3 8,-6l0 -33 -49 18 0 0z"/>
    <path id="skadu3" fill="#E9E9E9" d="M87 312l24 0c1,0 0,0 1,0 2,0 12,0 15,0 5,0 9,-1 14,-1 6,0 12,-1 15,-1 5,0 3,0 6,-1l7 -2c0,0 0,0 1,0 0,-2 0,-2 -2,-2l-7 -2c-1,0 -3,0 -4,0 -1,0 -2,0 -4,0 -3,0 -1,-1 -3,-1 -1,0 -3,0 -4,0l-18 -1c-3,0 -6,0 -8,0l-5 0c-1,0 0,0 -1,0l-3 1c0,1 0,1 4,1l16 1c4,0 8,0 10,1 2,0 3,1 5,1 2,0 4,0 5,0l0 1c-2,0 -2,-1 -2,1l-11 2c-5,0 -9,0 -13,0 -5,0 -9,1 -13,1l-42 0c-3,0 -4,0 -6,-1 -4,0 -8,0 -11,-1l-8 -2c0,-1 0,0 1,-1 5,-3 24,-4 28,-4l9 0c2,0 0,0 1,0l-6 -2c-1,1 -2,0 -4,1 -5,0 -5,0 -10,0 -3,0 -5,0 -7,0 -5,0 -9,0 -15,1 -3,0 -15,1 -16,3l0 0c0,0 0,0 0,0 0,0 0,0 0,1 2,0 3,0 4,0 1,0 0,0 1,0l0 0c2,1 3,0 5,1 3,1 8,1 10,1 3,0 5,0 8,0l15 1c4,0 12,0 15,0l1 0 0 3z"/>
    <path id="skadu2" fill="#C0C2C3" d="M88 302c-1,1 -3,1 -6,1 -4,0 -8,0 -10,1 -1,0 -7,1 -9,1 0,2 0,1 0,2 6,2 47,3 54,2 3,0 13,-2 17,-2l0 -2 -25 -2c-1,0 -1,0 -2,-1l-8 3 0 -65c-1,1 0,2 0,4 0,17 0,43 0,58l-1 -1c0,0 0,0 0,0 -2,-1 -2,0 -3,1 0,-10 0,-21 0,-31 0,-4 1,-28 0,-30l0 65 -8 -3 0 0z"/>
    <path id="skadu1" fill="#D6D6D8" d="M108 302c1,1 0,0 2,1l25 2 0 2c-4,0 -14,2 -17,2 -7,1 -49,0 -54,-2 0,-1 0,0 0,-2 3,0 9,-1 9,-1 3,-1 7,0 10,-1 3,0 5,0 6,-1l-3 -1c-1,0 0,0 -1,0l-9 0c-5,0 -25,1 -28,4 -1,0 -1,0 -1,1l8 2c3,1 8,1 11,1 3,0 4,1 6,1l42 0c5,0 9,-1 13,-1 5,0 9,0 13,0l11 -2c0,-2 0,-2 2,-1l0 -1c-1,0 -4,0 -5,0 -2,0 -3,-1 -5,-1 -3,-1 -7,0 -10,-1l-16 -1c-5,0 -4,0 -4,-1l-4 1 -1 0z"/>
   </g>
  </g>
 </g>
</svg>
