<?xml version="1.0" encoding="UTF-8"?>
<!DOCTYPE svg PUBLIC "-//W3C//DTD SVG 1.1//EN" "http://www.w3.org/Graphics/SVG/1.1/DTD/svg11.dtd">
<!-- Creator: CorelDRAW 2020 (64-Bit) -->
<svg xmlns="http://www.w3.org/2000/svg" xml:space="preserve" width="200px" height="660px" version="1.1" shape-rendering="geometricPrecision" text-rendering="geometricPrecision" image-rendering="optimizeQuality" fill-rule="evenodd" clip-rule="evenodd"
viewBox="0 0 253 835"
 xmlns:xlink="http://www.w3.org/1999/xlink"
 xmlns:xodm="http://www.corel.com/coreldraw/odm/2003">
 <g id="Layer_x0020_1">
  <metadata id="CorelCorpID_0Corel-Layer"/>
  <rect id="RECT" fill="#E6E7E8" x="17" width="224" height="835"/>
  <path fill="#324C5B" d="M0 318l0 13c1,2 1,11 2,14 1,4 2,9 3,13 10,38 38,70 75,85 20,8 32,9 55,9 -2,-3 -7,-7 -9,-9 -3,-3 -6,-7 -9,-10l-39 -38c-1,-1 -19,-18 -18,-19 -2,-1 -2,-1 -3,-2 -2,-3 -1,-11 -1,-15l0 -65c0,-4 -1,-19 1,-22 2,-7 10,-4 17,-5 0,-5 -2,-13 4,-12 5,1 3,8 3,13l72 -1c0,-2 -2,-14 6,-12 2,1 2,3 2,3 0,0 0,1 0,1l1 -1c2,3 8,8 9,10 3,0 5,1 7,3l31 30c1,1 1,2 2,3l19 19c2,2 3,3 6,4 3,3 16,17 19,19l1 -7 0 -26c-1,-2 -2,-15 -6,-25 -3,-8 -6,-14 -9,-22 -9,-16 -21,-29 -35,-40 -37,-29 -86,-34 -129,-15 -18,8 -31,19 -43,33 -12,14 -21,31 -27,49 -2,10 -3,13 -4,23 0,1 0,1 0,2 0,0 0,1 0,1 -1,0 -1,1 -1,1 0,0 0,0 0,1z"/>
  <path fill="black" d="M176 272l1 53c18,6 35,40 11,64 -23,22 -56,8 -63,-12 -8,0 -61,1 -64,-1l-2 0c-1,1 18,18 18,19l39 38c3,3 6,7 9,10 3,2 8,7 9,9 22,0 45,-9 63,-20 29,-19 51,-53 55,-86 -3,-2 -15,-16 -19,-19 -2,-2 -3,-3 -6,-4l-19 -19c-1,-1 -2,-2 -2,-3l-31 -30 1 3z"/>
  <path id="Inside" fill="#EAEFF1" d="M59 375l2 0 64 0c-3,-9 -4,-16 -2,-26 4,-13 11,-16 11,-18 -1,-1 -2,-1 -4,-1l0 -12 12 0 0 7 8 -3 1 -3c17,-1 8,0 13,2 1,0 4,0 5,1 3,1 6,2 8,2l1 -32 -122 0 0 65c0,4 -1,13 1,15 1,1 2,1 3,2z"/>
  <path fill="#64798A" d="M176 292l-1 32c-2,-1 -5,-2 -8,-2 -1,-1 -4,-1 -5,-1 -4,-2 4,-2 -13,-2l-1 3 -8 3c-1,1 -6,4 -8,6 0,2 -7,6 -11,18 -2,10 -1,17 2,26l-64 0c3,1 56,1 64,1 7,20 40,34 63,12 24,-23 7,-58 -11,-64l-1 -53 0 20z"/>
  <path fill="#FEFEFE" d="M153 329c-18,4 -28,22 -24,38 4,14 18,28 38,24 15,-3 28,-19 24,-38 -3,-15 -19,-29 -38,-24z"/>
  <path fill="#E46252" d="M54 292l122 0 0 -20 -1 -3c-2,-2 -3,-3 -7,-3l-9 -1c0,5 1,13 -4,13 -6,0 -4,-8 -4,-13l-72 1c1,4 2,12 -4,12 -6,0 -4,-8 -4,-13 -7,1 -15,-2 -17,5 -1,3 -1,18 -1,22z"/>
  <path fill="#EAEFF1" d="M151 266c0,4 -2,13 4,13 6,0 4,-8 4,-13l0 -8c0,0 0,-1 0,-1 0,1 -1,-2 -2,-3 -8,-3 -6,10 -6,12z"/>
  <path fill="#EAEFF1" d="M71 266c0,4 -2,13 4,13 6,0 5,-8 4,-12 0,-4 2,-12 -3,-13 -6,-1 -4,7 -4,12z"/>
  <path fill="#878888" d="M159 356c-2,-1 -2,-2 -3,-2 -1,2 1,2 2,3 -11,1 -14,-2 -14,3 3,1 8,1 12,1 4,0 2,1 4,2 5,1 0,-3 11,8 3,3 4,6 7,6 -1,-3 -9,-10 -13,-14 -2,-2 0,-2 -2,-5 -1,-2 -1,1 -1,-6 0,-4 1,-9 0,-13 -4,0 -3,3 -3,7 0,3 0,7 0,11z"/>
  <polygon fill="#D5D6DB" points="109,312 121,312 121,301 110,301 "/>
  <polygon fill="#D5D6DB" points="129,312 141,312 141,301 129,301 "/>
  <polygon fill="#44C4A1" points="89,330 101,330 101,319 89,319 "/>
  <polygon fill="#D5D6DB" points="109,330 121,330 121,319 110,319 "/>
  <polygon fill="#D5D6DB" points="69,330 80,330 80,319 69,319 "/>
  <polygon fill="#E46252" points="150,312 162,312 162,301 150,301 "/>
  <polygon fill="#D5D6DB" points="89,349 101,349 101,338 89,337 "/>
  <polygon fill="#D5D6DB" points="69,349 80,349 80,342 80,338 69,337 "/>
  <polygon fill="#D5D6DB" points="69,367 80,368 80,356 69,356 "/>
  <polygon fill="#D5D6DB" points="89,367 100,368 101,356 89,356 "/>
  <polygon fill="#D5D6DB" points="109,349 121,349 121,338 110,338 "/>
  <path fill="#D5D6DB" d="M133 331c2,-1 7,-4 8,-6l0 -7 -12 0 0 12c2,0 3,0 4,1z"/>
  <path fill="black" d="M159 257l0 8 9 1c-1,-2 -7,-7 -9,-10l-1 1z"/>
 </g>
</svg>
