<?xml version="1.0" encoding="UTF-8"?>
<!DOCTYPE svg PUBLIC "-//W3C//DTD SVG 1.1//EN" "http://www.w3.org/Graphics/SVG/1.1/DTD/svg11.dtd">
<!-- Creator: CorelDRAW 2020 (64-Bit) -->
<svg xmlns="http://www.w3.org/2000/svg" xml:space="preserve" width="200px" height="456px" version="1.1" shape-rendering="geometricPrecision" text-rendering="geometricPrecision" image-rendering="optimizeQuality" fill-rule="evenodd" clip-rule="evenodd"
viewBox="0 0 201 458"
 xmlns:xlink="http://www.w3.org/1999/xlink"
 xmlns:xodm="http://www.corel.com/coreldraw/odm/2003">
 <g id="Layer_x0020_1">
  <metadata id="CorelCorpID_0Corel-Layer"/>
  <rect id="RECT" fill="#E6E7E8" width="201" height="458"/>
  <text x="58" y="409" id="TEXT2" fill="black" font-weight="normal" font-size="22px" font-family="Arial">STOOR</text>
  <text x="62" y="69" id="TEXT1" fill="black" font-weight="normal" font-size="21px" font-family="Arial">STORE</text>
  <path fill="black" fill-rule="nonzero" d="M138 106l-79 0 0 39 -10 0 0 148c0,27 22,49 49,49 27,0 49,-22 49,-49l0 -148 -10 0 0 -39zm-69 10l10 0 0 15 10 0 0 -15 20 0 0 15 10 0 0 -15 10 0 0 30 -59 0 0 -30z"/>
 </g>
</svg>
