<?xml version="1.0" encoding="UTF-8"?>
<!DOCTYPE svg PUBLIC "-//W3C//DTD SVG 1.1//EN" "http://www.w3.org/Graphics/SVG/1.1/DTD/svg11.dtd">
<!-- Creator: CorelDRAW 2020 (64-Bit) -->
<svg xmlns="http://www.w3.org/2000/svg" xml:space="preserve" width="200px" height="456px" version="1.1" shape-rendering="geometricPrecision" text-rendering="geometricPrecision" image-rendering="optimizeQuality" fill-rule="evenodd" clip-rule="evenodd"
viewBox="0 0 200 456"
 xmlns:xlink="http://www.w3.org/1999/xlink"
 xmlns:xodm="http://www.corel.com/coreldraw/odm/2003">
 <g id="Layer_x0020_1">
  <metadata id="CorelCorpID_0Corel-Layer"/>
  <rect fill="#E6E7E8" width="201" height="458"/>
  <g id="_2147247963056">
   <polygon fill="#848688" fill-rule="nonzero" points="30,336 22,336 22,340 29,340 29,346 22,346 22,350 30,350 30,356 15,356 15,331 30,331 "/>
   <path fill="#848688" fill-rule="nonzero" d="M40 343c0,1 0,2 1,3 0,1 1,2 2,2 1,1 1,1 2,1 1,0 2,1 3,1 1,0 1,0 2,0l-4 -4 6 -1 2 2c1,-1 1,-2 1,-4 0,-1 0,-2 -1,-3 0,-1 -1,-2 -2,-2 -1,-1 -1,-1 -2,-1 -1,0 -2,-1 -3,-1 -1,0 -2,0 -3,1 -1,0 -2,1 -2,1 -1,1 -1,1 -2,2 0,1 -1,2 -1,3l0 0zm-7 0c0,-2 0,-4 1,-5 1,-2 2,-3 3,-4 1,-1 3,-2 4,-3 2,-1 4,-1 6,-1 2,0 4,0 6,1 2,1 3,2 4,3 1,1 2,3 3,4 1,2 1,3 1,5 0,2 0,3 -1,5 -1,2 -1,3 -2,4l4 4 -6 1 -2 -2c-1,1 -2,1 -3,1 -1,0 -2,0 -3,0 -2,0 -4,0 -6,-1 -2,-1 -3,-2 -4,-3 -1,-1 -2,-3 -3,-4 -1,-2 -1,-3 -1,-5l0 0z"/>
   <path fill="#848688" fill-rule="nonzero" d="M71 331l0 14c0,1 0,2 0,2 0,1 0,2 1,2 0,1 1,1 1,2 1,0 1,1 3,1 1,0 2,0 3,-1 1,0 1,-1 1,-2 0,-1 1,-1 1,-2 0,-1 0,-2 0,-2l0 -14 6 0 0 14c0,4 -1,7 -3,9 -2,2 -5,3 -8,3 -4,0 -6,-1 -8,-3 -2,-2 -3,-5 -3,-9l0 -14 7 0 0 0z"/>
   <path fill="#848688" fill-rule="nonzero" d="M105 346l-3 -8 -3 8 6 0 0 0zm2 5l-9 0 -2 4 -7 0 9 -25 7 0 9 25 -7 0 -2 -4 0 0z"/>
   <polygon fill="#848688" fill-rule="nonzero" points="124,331 124,350 132,350 132,356 118,356 118,331 "/>
   <polygon fill="#848688" fill-rule="nonzero" points="142,356 135,356 135,331 142,331 "/>
   <polygon fill="#848688" fill-rule="nonzero" points="156,336 156,356 150,356 150,336 144,336 144,331 162,331 162,336 "/>
   <polygon fill="#848688" fill-rule="nonzero" points="172,344 163,331 171,331 175,338 180,331 188,331 179,344 179,356 172,356 "/>
   <polygon fill="#F5863A" fill-rule="nonzero" points="50,174 102,154 102,92 76,117 86,143 69,155 35,127 "/>
   <polygon fill="#F37435" fill-rule="nonzero" points="153,174 102,154 102,92 127,117 118,143 134,155 168,127 "/>
   <path fill="#F5863A" fill-rule="nonzero" d="M35 188l13 75c1,5 3,9 7,12l47 47 0 -153 -67 19 0 0z"/>
   <path fill="#F37435" fill-rule="nonzero" d="M102 168l0 153 47 -47c3,-3 6,-8 7,-12l13 -75 -67 -19 0 0z"/>
   <polygon fill="#FEFEFE" fill-rule="nonzero" points="127,205 101,205 101,219 126,219 126,238 101,238 101,252 127,252 127,271 80,271 80,186 127,186 "/>
  </g>
 </g>
</svg>
