<?xml version="1.0" encoding="UTF-8"?>
<!DOCTYPE svg PUBLIC "-//W3C//DTD SVG 1.1//EN" "http://www.w3.org/Graphics/SVG/1.1/DTD/svg11.dtd">
<!-- Creator: CorelDRAW 2020 (64-Bit) -->
<svg xmlns="http://www.w3.org/2000/svg" xml:space="preserve" width="200px" height="456px" version="1.1" shape-rendering="geometricPrecision" text-rendering="geometricPrecision" image-rendering="optimizeQuality" fill-rule="evenodd" clip-rule="evenodd"
viewBox="0 0 201 458"
 xmlns:xlink="http://www.w3.org/1999/xlink"
 xmlns:xodm="http://www.corel.com/coreldraw/odm/2003">
 <g id="Layer_x0020_1">
  <metadata id="CorelCorpID_0Corel-Layer"/>
  <rect fill="#E6E7E8" width="201" height="458"/>
  <path id="RightBadge" fill="#008052" fill-rule="nonzero" d="M189 182l-17 100c-1,6 -4,12 -9,16l-64 63 0 -205 89 26 0 0z"/>
  <path id="LeftBadge" fill="#F37435" fill-rule="nonzero" d="M100 156l0 205 -64 -63c-4,-4 -8,-10 -9,-16l-17 -100 89 -26 0 0z"/>
  <polygon id="TopRight" fill="#008052" fill-rule="nonzero" points="169,164 100,138 100,54 134,87 121,122 143,139 189,101 "/>
  <polygon id="TopLeft" fill="#F37435" fill-rule="nonzero" points="31,164 100,138 100,54 66,87 78,122 56,139 10,101 "/>
  <g id="_2112063810544">
   <path id="BuiteNiks" fill="#FEFEFE" d="M102 192c6,4 12,6 19,4 3,-1 6,-2 8,-3l2 -1 1 2c1,1 2,2 3,3 4,2 8,4 12,5l2 0 0 2c1,12 -1,24 -6,35 -4,9 -10,18 -17,25 -5,6 -11,11 -17,15 -2,1 -4,3 -6,4 -1,0 -2,1 -2,1l-2 0c-3,-2 -6,-4 -8,-5 -6,-5 -12,-10 -17,-15 -7,-8 -13,-16 -17,-25 -5,-11 -7,-23 -6,-35l0 -2 2 0c4,-1 9,-3 12,-5 1,-1 3,-2 3,-3l1 -2 2 1c2,2 6,3 8,3 7,1 13,0 19,-4l1 -1 1 1 0 0z"/>
   <path id="OnderNiks" fill="#FDFDFD" d="M100 288c-3,-1 -9,-4 -19,-6l-5 -11c-19,-4 -27,8 -27,8 2,9 4,16 4,16 0,0 19,-1 45,10l1 1 1 -1c27,-11 45,-10 45,-10 0,0 2,-7 4,-16 0,0 -8,-12 -27,-8l-5 11c-10,2 -16,5 -19,6l0 0z"/>
   <path id="GroenBo" fill="#0F5447" d="M55 229l91 0 2 -9 0 -13 1 -6 -3 0 -8 -3 -5 -4 -1 -2 -4 1 -5 2c0,0 -3,1 -4,1 0,0 -6,0 -6,0l-6 -2 -5 -3 -3 1 -5 3 -7 1 -12 -2 -4 -2 -3 3 -6 3 -8 3 -1 4 1 10 1 9 1 4 0 0z"/>
   <path id="Buite2" fill="#E72F03" d="M102 192c6,4 12,6 19,4 3,-1 6,-2 8,-3l2 -1 1 2c1,1 2,2 3,3 4,2 8,4 12,5l2 0 0 2c1,12 -1,24 -6,35 -4,9 -10,18 -17,25 -5,6 -11,11 -17,15 -2,1 -4,3 -6,4 -1,0 -2,1 -2,1l-2 0c-3,-2 -6,-4 -8,-5 -6,-5 -12,-10 -17,-15 -7,-8 -13,-16 -17,-25 -5,-11 -7,-23 -6,-35l0 -2 2 0c4,-1 9,-3 12,-5 1,-1 3,-2 3,-3l1 -2 2 1c2,2 6,3 8,3 7,1 13,0 19,-4l1 -1 1 1 0 0zm-1 2l0 0c-16,11 -30,1 -30,1 0,0 -5,6 -17,9 -4,51 47,79 47,79l0 0 0 0 0 0c0,0 50,-28 47,-79 -12,-3 -17,-9 -17,-9 0,0 -14,10 -30,-1l0 0 0 0z"/>
   <g id="KasteleAB">
    <g>
     <polygon fill="#E72F03" points="72,252 90,252 90,253 72,253 "/>
     <polygon fill="#E72F03" points="72,248 73,248 73,253 72,253 "/>
     <polygon fill="#0F5447" points="75,240 87,240 87,242 75,242 "/>
     <polygon fill="#0F5447" points="75,238 87,238 87,239 75,239 "/>
     <polygon fill="#E72F03" points="74,248 76,248 76,253 74,253 "/>
     <polygon fill="#E72F03" points="80,248 81,248 81,253 80,253 "/>
     <polygon fill="#E72F03" points="90,252 72,252 72,253 90,253 "/>
     <polygon fill="#E72F03" points="90,248 89,248 89,253 90,253 "/>
     <polygon fill="#E72F03" points="87,248 86,248 86,253 87,253 "/>
     <g>
      <polygon fill="#E72F03" points="77,248 78,248 78,253 77,253 "/>
      <polygon fill="#E72F03" points="84,248 83,248 83,253 84,253 "/>
     </g>
     <g>
      <polygon fill="#E72F03" points="74,237 76,237 76,248 74,248 "/>
      <polygon fill="#E72F03" points="87,237 86,237 86,248 87,248 "/>
     </g>
     <path fill="#E72F03" d="M90 232l-6 0 0 1 6 0 0 -1zm-7 0l-5 0 0 1 5 0 0 -1z"/>
     <polygon fill="#E72F03" points="87,236 74,236 74,238 87,238 "/>
     <g>
      <polygon fill="#E72F03" points="78,232 80,232 80,237 78,237 "/>
      <polygon fill="#E72F03" points="82,232 83,232 83,237 82,237 "/>
     </g>
     <polygon fill="#E72F03" points="84,232 85,232 85,237 84,237 "/>
     <polygon fill="#E72F03" points="89,232 90,232 90,235 89,235 "/>
     <path fill="#E72F03" fill-rule="nonzero" d="M89 235c0,0 0,1 -2,2l0 1c3,0 3,-2 3,-3l-1 0z"/>
     <path fill="#0F5447" d="M78 244l1 0 3 0 1 0 0 1 0 3 7 0 0 1 -18 0 0 -1 7 0 0 -3 0 -1 0 0zm4 4l0 -3 -3 0 0 3 3 0z"/>
     <path fill="#E72F03" d="M72 232l6 0 0 1 -6 0 0 -1zm7 0l5 0 0 1 -5 0 0 -1z"/>
     <polygon fill="#E72F03" points="77,232 76,232 76,237 77,237 "/>
     <polygon fill="#E72F03" points="73,232 72,232 72,235 73,235 "/>
     <path fill="#E72F03" fill-rule="nonzero" d="M73 235c0,0 0,1 2,2l0 1c-3,0 -3,-2 -3,-3l1 0z"/>
    </g>
    <g>
     <polygon fill="#E72F03" points="111,252 129,252 129,253 111,253 "/>
     <polygon fill="#E72F03" points="111,248 112,248 112,253 111,253 "/>
     <polygon fill="#0F5447" points="114,240 125,240 125,242 114,242 "/>
     <polygon fill="#0F5447" points="114,238 125,238 125,239 114,239 "/>
     <polygon fill="#E72F03" points="113,248 114,248 114,253 113,253 "/>
     <polygon fill="#E72F03" points="119,248 120,248 120,253 119,253 "/>
     <polygon fill="#E72F03" points="129,252 111,252 111,253 129,253 "/>
     <polygon fill="#E72F03" points="129,248 127,248 127,253 129,253 "/>
     <polygon fill="#E72F03" points="126,248 125,248 125,253 126,253 "/>
     <g>
      <polygon fill="#E72F03" points="116,248 117,248 117,253 116,253 "/>
      <polygon fill="#E72F03" points="123,248 122,248 122,253 123,253 "/>
     </g>
     <g>
      <polygon fill="#E72F03" points="113,237 114,237 114,248 113,248 "/>
      <polygon fill="#E72F03" points="126,237 125,237 125,248 126,248 "/>
     </g>
     <path fill="#E72F03" d="M129 232l-6 0 0 1 6 0 0 -1zm-7 0l-5 0 0 1 5 0 0 -1z"/>
     <polygon fill="#E72F03" points="126,236 113,236 113,238 126,238 "/>
     <g>
      <polygon fill="#E72F03" points="117,232 118,232 118,237 117,237 "/>
      <polygon fill="#E72F03" points="121,232 122,232 122,237 121,237 "/>
     </g>
     <polygon fill="#E72F03" points="123,232 124,232 124,237 123,237 "/>
     <polygon fill="#E72F03" points="127,232 129,232 129,235 127,235 "/>
     <path fill="#E72F03" fill-rule="nonzero" d="M127 235c0,0 0,1 -2,2l0 1c3,0 3,-2 3,-3l-1 0z"/>
     <path fill="#0F5447" d="M117 244l1 0 3 0 1 0 0 1 0 3 7 0 0 1 -18 0 0 -1 7 0 0 -3 0 -1 0 0zm4 4l0 -3 -3 0 0 3 3 0z"/>
     <path fill="#E72F03" d="M111 232l6 0 0 1 -6 0 0 -1zm7 0l5 0 0 1 -5 0 0 -1z"/>
     <polygon fill="#E72F03" points="116,232 115,232 115,237 116,237 "/>
     <polygon fill="#E72F03" points="112,232 111,232 111,235 112,235 "/>
     <path fill="#E72F03" fill-rule="nonzero" d="M112 235c0,0 0,1 2,2l0 1c-3,0 -3,-2 -3,-3l1 0z"/>
    </g>
   </g>
   <g id="KasteelC">
    <polygon fill="#E72F03" points="91,272 109,272 109,273 91,273 "/>
    <polygon fill="#E72F03" points="91,269 92,269 92,273 91,273 "/>
    <polygon fill="#0F5447" points="94,261 106,261 106,262 94,262 "/>
    <polygon fill="#0F5447" points="94,258 106,258 106,260 94,260 "/>
    <polygon fill="#E72F03" points="94,269 95,269 95,273 94,273 "/>
    <polygon fill="#E72F03" points="100,269 101,269 101,273 100,273 "/>
    <polygon fill="#E72F03" points="109,272 91,272 91,273 109,273 "/>
    <polygon fill="#E72F03" points="109,269 108,269 108,273 109,273 "/>
    <polygon fill="#E72F03" points="106,269 105,269 105,273 106,273 "/>
    <g>
     <polygon fill="#E72F03" points="97,269 98,269 98,273 97,273 "/>
     <polygon fill="#E72F03" points="104,269 102,269 102,273 104,273 "/>
    </g>
    <g>
     <polygon fill="#E72F03" points="94,258 95,258 95,269 94,269 "/>
     <polygon fill="#E72F03" points="106,258 105,258 105,269 106,269 "/>
    </g>
    <path fill="#E72F03" d="M109 253l-6 0 0 1 6 0 0 -1zm-7 0l-5 0 0 1 5 0 0 -1z"/>
    <polygon fill="#E72F03" points="106,257 94,257 94,258 106,258 "/>
    <g>
     <polygon fill="#E72F03" points="98,253 99,253 99,258 98,258 "/>
     <polygon fill="#E72F03" points="101,253 102,253 102,258 101,258 "/>
    </g>
    <polygon fill="#E72F03" points="103,253 105,253 105,258 103,258 "/>
    <polygon fill="#E72F03" points="108,253 109,253 109,255 108,255 "/>
    <path fill="#E72F03" fill-rule="nonzero" d="M108 255c0,0 0,1 -2,2l0 1c3,0 3,-2 3,-3l-1 0z"/>
    <path fill="#0F5447" d="M98 265l1 0 3 0 1 0 0 1 0 3 7 0 0 1 -18 0 0 -1 7 0 0 -3 0 -1 0 0zm4 4l0 -3 -3 0 0 3 3 0z"/>
    <path fill="#E72F03" d="M91 253l6 0 0 1 -6 0 0 -1zm7 0l5 0 0 1 -5 0 0 -1z"/>
    <polygon fill="#E72F03" points="97,253 96,253 96,258 97,258 "/>
    <polygon fill="#E72F03" points="92,253 91,253 91,255 92,255 "/>
    <path fill="#E72F03" fill-rule="nonzero" d="M92 255c0,0 0,1 2,2l0 1c-3,0 -3,-2 -3,-3l1 0z"/>
   </g>
   <path id="Onder1" fill="#E72F03" d="M100 288c-3,-1 -9,-4 -19,-6l-5 -11c-19,-4 -27,8 -27,8 2,9 4,16 4,16 0,0 19,-1 45,10l1 1 1 -1c27,-11 45,-10 45,-10 0,0 2,-7 4,-16 0,0 -8,-12 -27,-8l-5 11c-10,2 -16,5 -19,6l0 0zm0 15c-15,-6 -28,-9 -45,-10 -1,-4 -2,-7 -2,-11 15,0 31,3 46,8l1 1 1 -1c14,-5 30,-8 46,-8 -1,4 -2,7 -2,11 -16,1 -30,4 -45,10zm37 -23l-13 -6 0 0c15,-2 22,6 22,6l0 0c-3,0 -7,0 -10,1zm-13 -3l8 4c-4,0 -7,1 -10,2l0 0 2 -5 0 0zm-61 3l13 -6 0 0c-15,-2 -22,6 -22,6l0 0c3,0 7,0 10,1zm13 -3l-8 4c4,0 7,1 10,2l0 0 -2 -5 0 0z"/>
   <path id="HSDEKBuiteOranje" fill="#E72F03" d="M72 207c3,7 5,13 8,20 7,-5 14,-5 20,-1 6,-3 13,-4 20,1 3,-7 5,-13 8,-20 -6,2 -9,2 -12,1 -8,-6 -11,-1 -16,-1 -5,0 -8,-6 -16,1 -2,2 -5,2 -12,-1l0 0z"/>
   <path id="HSDEKWitOor" fill="#FEFEFE" d="M76 210l6 14c6,-4 14,-3 19,-1 5,-2 12,-3 19,1l5 -14c-6,2 -7,0 -10,-1 -7,-5 -10,0 -15,0 -4,0 -7,-5 -15,0 -2,1 -4,3 -10,1z"/>
   <path id="Leuse1-ScireEst" fill="#0F5447" fill-rule="nonzero" d="M59 289l1 0c0,0 0,1 0,1 0,0 0,0 1,0 0,0 1,0 1,0 0,0 0,0 0,-1 0,0 0,0 0,0 0,0 0,0 0,0 0,0 0,0 -1,0 -1,0 -1,0 -1,-1 0,0 0,-1 0,-1 0,0 0,-1 0,-1 0,0 0,0 1,0 0,0 1,0 1,0 1,0 1,0 2,1 0,0 0,1 0,1l-1 0c0,0 0,-1 0,-1 0,0 0,0 -1,0 0,0 -1,0 -1,0 0,0 0,0 0,0 0,0 0,0 0,0 0,0 0,0 1,0 1,0 1,0 1,1 0,0 0,0 1,1 0,0 0,1 0,1 0,0 0,1 0,1 0,0 0,0 -1,1 0,0 -1,0 -1,0 -1,0 -1,0 -2,-1 0,0 -1,-1 -1,-1l0 0zm9 1l1 0c0,1 -1,1 -1,1 0,0 -1,0 -2,0 -1,0 -1,0 -2,-1 0,-1 -1,-1 0,-2 0,-1 0,-2 1,-2 1,0 1,-1 2,0 1,0 1,0 2,1 0,0 0,1 0,1l-1 0c0,0 0,-1 0,-1 0,0 0,0 -1,0 0,0 -1,0 -1,0 0,0 0,1 -1,1 0,1 0,1 0,2 0,0 1,1 1,1 0,0 1,0 1,0 0,0 0,0 1,-1l0 0zm2 2l1 -5 1 0 -1 5 -1 0zm2 0l1 -5 2 0c1,0 1,0 1,0 0,0 0,0 1,1 0,0 0,1 0,1 0,0 0,1 -1,1 0,0 -1,0 -1,0 0,0 0,0 0,1 0,0 0,1 0,1l0 1 -1 0 -1 -1c0,0 0,-1 0,-1 0,0 0,0 0,0 0,0 0,0 -1,0l0 0 0 2 -1 0 0 0zm2 -3l1 0c1,0 1,0 1,0 0,0 0,0 0,0 0,0 0,0 0,0 0,0 0,0 0,0 0,0 0,0 0,0 0,0 0,0 -1,0l-1 0 0 1 0 0zm4 4l1 -5 4 1 0 1 -3 -1 0 1 3 1 0 1 -3 -1 0 1 3 1 0 1 -4 -1 0 0zm7 2l2 -5 4 1 0 1 -3 -1 0 1 3 1 0 1 -3 -1 0 1 3 1 0 1 -4 -1 0 0zm5 0l1 0c0,0 0,1 0,1 0,0 0,0 1,0 0,0 1,0 1,0 0,0 0,0 0,0 0,0 0,0 0,0 0,0 0,0 0,0 0,0 0,0 -1,-1 -1,0 -1,-1 -1,-1 0,0 0,-1 0,-1 0,0 0,-1 0,-1 0,0 1,0 1,0 0,0 1,0 1,0 1,0 1,1 1,1 0,0 0,1 0,1l-1 0c0,0 0,-1 0,-1 0,0 0,0 -1,0 0,0 -1,0 -1,0 0,0 0,0 0,0 0,0 0,0 0,0 0,0 0,0 1,1 0,0 1,1 1,1 0,0 0,0 0,1 0,0 0,1 0,1 0,0 0,1 -1,1 0,0 -1,0 -1,0 0,0 -1,0 -1,0 -1,0 -1,-1 -1,-1 0,0 0,-1 0,-2l0 0zm6 4l2 -4 -2 -1 0 -1 4 1 0 1 -2 -1 -2 4 -1 0z"/>
   <path id="Leuse2-Potentia" fill="#0F5447" fill-rule="nonzero" d="M105 299l-2 -5 2 -1c1,0 1,0 1,0 0,0 1,0 1,0 0,0 1,1 1,1 0,0 0,1 0,1 0,0 0,0 0,1 0,0 0,0 0,0 0,0 -1,0 -1,0l-1 0 1 2 -1 0 0 0zm0 -5l1 2 1 0c0,0 1,0 1,0 0,0 0,0 0,0 0,0 0,0 0,0 0,0 0,0 0,0 0,0 0,0 -1,0 0,0 0,0 -1,0l-1 0 0 0zm4 1c0,-1 0,-1 0,-1 0,0 0,-1 0,-1 0,0 0,-1 1,-1 0,0 1,0 1,-1 1,0 1,0 2,0 1,0 1,1 1,2 0,1 0,2 0,2 0,1 -1,1 -2,1 -1,0 -2,0 -2,0 -1,0 -1,-1 -1,-2l0 0zm1 0c0,1 0,1 1,1 0,0 1,0 1,0 0,0 1,0 1,-1 0,0 0,-1 0,-2 0,-1 0,-1 -1,-1 0,0 -1,0 -1,0 0,0 -1,0 -1,1 0,0 0,1 0,2zm7 1l-1 -4 -2 0 0 -1 4 -1 0 1 -2 0 1 4 -1 0zm3 -1l-1 -5 4 -1 0 1 -3 1 0 1 3 -1 0 1 -3 1 0 1 3 -1 0 1 -4 1 0 0zm5 -1l-1 -5 1 0 3 3 -1 -4 1 0 1 5 -1 0 -3 -3 1 4 -1 0 0 0zm7 -1l-1 -5 -2 0 0 -1 4 -1 0 1 -2 0 1 5 -1 0 0 0zm3 0l-1 -5 1 0 1 5 -1 0zm7 -1l-1 0 -1 -1 -2 0 0 1 -1 0 2 -6 1 0 3 5 0 0zm-2 -2l-1 -2 -1 2 2 0z"/>
   <path id="HSDEK" fill="#373435" fill-rule="nonzero" d="M101 213l2 0c1,0 1,0 1,0 0,0 1,0 1,0 0,0 1,1 1,1 0,0 0,1 1,2 0,1 0,1 0,1 0,1 0,1 0,1 0,0 0,1 -1,1 0,0 -1,0 -1,0l-3 0 -1 -7 0 0zm2 1l1 4 1 0c0,0 1,0 1,0 0,0 0,0 0,0 0,0 0,0 0,-1 0,0 0,-1 0,-1 0,-1 0,-1 0,-1 0,0 0,0 -1,-1 0,0 0,0 -1,0 0,0 -1,0 -1,0l-1 0 0 0zm9 3l1 0c0,0 0,1 -1,1 0,0 -1,0 -1,0 -1,0 -1,0 -2,-1 0,0 0,-1 0,-2 0,-1 0,-1 1,-2 0,0 1,-1 2,-1 1,0 1,0 2,1 0,1 1,1 0,2l-3 0c0,0 0,1 0,1 0,0 0,0 1,0 0,0 0,0 1,0 0,0 0,0 0,-1l0 0zm0 -1c0,0 0,-1 0,-1 0,0 0,0 -1,0 0,0 -1,0 -1,0 0,0 0,0 0,1l2 0zm2 3l2 -6 1 0 -1 3 3 -2 2 0 -3 2 1 5 -2 0 -1 -4 -1 1 -1 2 -1 0 0 0zm-29 1l-2 -7 1 0 1 3 3 -1 -1 -3 1 0 2 7 -1 0 -1 -3 -3 1 1 3 -1 0zm6 -1l0 -1 1 0 0 1 -1 0zm2 -2l1 0c0,0 0,1 0,1 0,0 1,0 1,0 0,0 1,0 1,0 0,0 0,0 0,-1 0,0 0,0 0,0 0,0 0,0 0,0 0,0 0,0 -1,0 -1,0 -1,-1 -1,-1 0,0 0,-1 0,-1 0,0 0,-1 0,-1 0,0 1,0 1,-1 0,0 1,0 1,0 1,0 1,0 2,1 0,0 1,1 0,2l-1 0c0,0 0,-1 0,-1 0,0 0,0 -1,0 0,0 -1,0 -1,0 0,0 0,0 0,0 0,0 0,0 0,0 0,0 1,0 1,1 1,0 1,0 1,1 0,0 1,0 1,1 0,0 0,1 0,1 0,0 0,1 0,1 0,0 -1,1 -1,1 0,0 -1,0 -1,0 -1,0 -1,0 -2,-1 0,0 -1,-1 -1,-2l0 0zm6 3l0 -1 1 0 0 1 -1 0z"/>
   <path id="BuiteOmOranje" fill="#E72F03" d="M102 192c6,4 12,6 19,4 3,-1 6,-2 8,-3l2 -1 1 2c1,1 2,2 3,3 4,2 8,4 12,5l2 0 0 2c1,12 -1,24 -6,35 -4,9 -10,18 -17,25 -5,6 -11,11 -17,15 -2,1 -4,3 -6,4 -1,0 -2,1 -2,1l-2 0c-3,-2 -6,-4 -8,-5 -6,-5 -12,-10 -17,-15 -7,-8 -13,-16 -17,-25 -5,-11 -7,-23 -6,-35l0 -2 2 0c4,-1 9,-3 12,-5 1,-1 3,-2 3,-3l1 -2 2 1c2,2 6,3 8,3 7,1 13,0 19,-4l1 -1 1 1 0 0zm-1 2l0 0c-16,11 -30,1 -30,1 0,0 -5,6 -17,9 -4,51 47,79 47,79l0 0 0 0 0 0c0,0 50,-28 47,-79 -12,-3 -17,-9 -17,-9 0,0 -14,10 -30,-1l0 0 0 0z"/>
  </g>
  <text x="27" y="408"  fill="black" font-weight="normal" font-size="22px" font-family="Arial">DE KUILEN HS</text>
 </g>
</svg>
