<?xml version="1.0" encoding="UTF-8"?>
<!DOCTYPE svg PUBLIC "-//W3C//DTD SVG 1.1//EN" "http://www.w3.org/Graphics/SVG/1.1/DTD/svg11.dtd">
<!-- Creator: CorelDRAW 2020 (64-Bit) -->
<svg xmlns="http://www.w3.org/2000/svg" xml:space="preserve" width="200px" height="456px" version="1.1" shape-rendering="geometricPrecision" text-rendering="geometricPrecision" image-rendering="optimizeQuality" fill-rule="evenodd" clip-rule="evenodd"
viewBox="0 0 201 458"
 xmlns:xlink="http://www.w3.org/1999/xlink"
 xmlns:xodm="http://www.corel.com/coreldraw/odm/2003">
 <g id="Layer_x0020_1">
  <metadata id="CorelCorpID_0Corel-Layer"/>
  <rect id="RECT" fill="#E6E7E8" width="201" height="458"/>
  <text x="19" y="389" id="TEXT2" fill="black" font-weight="normal" font-size="22px" font-family="Arial">WORDS BELOW</text>
  <text x="23" y="65" id="TEXT1" fill="black" font-weight="normal" font-size="21px" font-family="Arial">WORDS ABOVE</text>
  <g id="_2112161863792">
   <g id="_2147439298592">
    <path id="House" fill="black" d="M31 295l138 0c1,-1 1,-1 1,-2 1,-1 0,-2 0,-3l0 -59c0,-2 0,-1 -3,-4l-42 -42c-4,-4 -9,-9 -13,-13 -1,-1 -12,-12 -13,-13 -1,1 -2,2 -4,3 -1,1 -2,2 -3,4l-26 26c-2,2 -4,4 -7,7l-29 30c-1,1 -1,1 -1,1 -1,1 -1,1 -1,3 0,20 0,39 0,59 0,4 1,3 1,5l0 -1z"/>
    <path id="HouseRoof" fill="black" d="M9 211l0 4c0,0 0,0 0,0 0,1 1,3 1,4 1,1 1,2 2,3 4,3 11,4 14,1l7 -7c2,-2 4,-4 5,-6l6 -5c4,-3 8,-8 11,-11 4,-4 7,-7 11,-11 3,-3 8,-8 11,-11l11 -11c1,-1 4,-4 5,-6 1,-1 5,-5 6,-5l43 43c2,2 9,9 11,11 4,4 7,7 11,11 1,1 7,7 9,8 4,2 9,1 13,-1 1,-1 3,-4 4,-6l1 -1c0,0 0,0 0,0l0 -4c0,0 0,0 0,0l-1 -1c-1,-3 -4,-5 -6,-7l-4 -4c-1,-1 -1,-2 -3,-3l-9 -9c-2,-1 -4,-4 -6,-6l-34 -35c-2,-2 -4,-4 -6,-6l-23 -22 -1 0c0,0 0,0 0,0l-3 3c-11,10 -21,21 -32,31 -12,12 -22,23 -34,35l-12 12c-1,1 -1,1 -3,3l-3 3c-1,1 -1,1 -1,1 -3,3 -2,3 -3,5l1 -1z"/>
    <path id="Chair" fill="white" d="M71 266l23 0c0,-4 1,-9 -7,-10 -5,-1 -12,-1 -17,-1l0 11zm0 17c4,-1 20,1 22,-1 1,-1 1,-1 1,-2 0,-3 0,-9 0,-12l-23 0 0 15 0 -1zm-1 -1c0,-10 0,-20 0,-30 0,-4 1,-11 -1,-15 -1,-3 -2,-3 -5,-3 -3,0 -4,1 -6,2 -1,1 -1,3 -1,6 0,8 0,15 0,22 0,4 -1,12 1,14 2,4 7,3 12,3l0 1z"/>
    <path id="ManSitting" fill="white" d="M80 208c-10,2 -7,17 4,16 4,-1 7,-4 6,-9 0,-2 -1,-4 -3,-5 -1,-1 -4,-1 -7,-1l0 0zm14 45c0,1 1,1 1,2 1,2 1,5 1,7 0,1 1,1 1,1 0,1 0,1 0,1 0,5 0,10 0,15 2,1 1,3 5,3 1,0 2,0 3,-1 1,-1 1,-1 1,-2 0,-3 0,-20 -1,-22 0,-1 -1,-3 -2,-3 -1,-1 -9,-1 -10,-1l1 -1zm-17 -1l10 0 0 -10c3,2 4,4 7,4 3,-1 7,-1 9,-2 3,-1 3,-6 -1,-7 -2,-1 -7,1 -9,1 -1,-1 -5,-5 -6,-7 -1,-1 -4,-6 -9,-3 -3,2 -2,7 -2,11 0,2 0,12 0,13l0 1z"/>
    <g id="Table">
     <path fill="white" d="M104 248c-2,0 -4,0 -5,1 -1,2 1,2 4,2 10,0 27,1 36,0 1,0 4,0 4,-1 1,-2 -2,-2 -4,-2 -4,0 -8,0 -12,0 -8,0 -16,0 -24,0z"/>
     <path fill="white" d="M139 253l-4 0c0,1 0,23 0,27 0,1 0,2 1,2 2,0 1,-4 1,-6 0,-4 0,-22 0,-23l1 0z"/>
     <path fill="white" d="M117 253l-4 0c0,1 0,20 0,23 0,4 0,6 1,6 2,0 1,-3 1,-6 0,-3 0,-22 0,-23l1 0z"/>
     <path fill="white" d="M125 239c0,2 1,1 2,1 1,-1 3,-11 3,-13 1,-4 2,-11 1,-14 -1,-1 -2,-1 -3,0 -1,1 -3,16 -3,18 -1,2 -1,6 -1,7l0 0z"/>
     <path fill="white" d="M130 244l1 0 1 0 0 -11c0,-1 1,-4 0,-4 -1,2 -1,12 -1,15z"/>
     <path fill="white" d="M126 246c1,1 9,1 11,0 0,-1 0,-1 -1,-1l-7 0c-1,0 -2,0 -2,1l-1 -1z"/>
    </g>
   </g>
  </g>
 </g>
</svg>
