<?xml version="1.0" encoding="UTF-8"?>
<!DOCTYPE svg PUBLIC "-//W3C//DTD SVG 1.1//EN" "http://www.w3.org/Graphics/SVG/1.1/DTD/svg11.dtd">
<!-- Creator: CorelDRAW 2020 (64-Bit) -->
<svg xmlns="http://www.w3.org/2000/svg" xml:space="preserve" width="200px" height="456px" version="1.1" shape-rendering="geometricPrecision" text-rendering="geometricPrecision" image-rendering="optimizeQuality" fill-rule="evenodd" clip-rule="evenodd"
viewBox="0 0 201 458"
 xmlns:xlink="http://www.w3.org/1999/xlink"
 xmlns:xodm="http://www.corel.com/coreldraw/odm/2003">
 <g id="Layer_x0020_1">
  <metadata id="CorelCorpID_0Corel-Layer"/>
  <rect id="RECT" fill="#E6E7E8" width="201" height="458"/>
  <text x="40" y="391" id="TEXT2" fill="black" font-weight="normal" font-size="22px" font-family="Arial"></text>
  <text x="45" y="67" id="TEXT1" fill="black" font-weight="normal" font-size="21px" font-family="Arial"></text>
  <g id="_1726295640144">
   <g id="Icons">
    <g>
     <path fill="#F4F4F4" fill-rule="nonzero" d="M7 179l0 101c0,9 7,17 17,17l153 0c9,0 17,-7 17,-17l0 -101 -91 -13 -96 13z"/>
     <path fill="#F43734" fill-rule="nonzero" d="M175 143l-149 0c-10,0 -19,8 -19,19l0 17 187 0 0 -17c0,-10 -8,-19 -19,-19z"/>
     <path fill="#DBDBDB" fill-rule="nonzero" d="M135 232l-30 0 0 -30c0,-3 -2,-6 -6,-6 -3,0 -6,3 -6,6l0 30 0 0 -29 0c-3,0 -6,3 -6,6 0,3 2,6 6,6l29 0 0 0 0 30c0,3 3,6 6,6 3,0 6,-2 6,-6l0 -30 30 0c3,0 6,-3 6,-6 0,-3 -3,-6 -6,-6z"/>
    </g>
   </g>
  </g>
 </g>
</svg>
