<?xml version="1.0" encoding="UTF-8"?>
<!DOCTYPE svg PUBLIC "-//W3C//DTD SVG 1.1//EN" "http://www.w3.org/Graphics/SVG/1.1/DTD/svg11.dtd">
<!-- Creator: CorelDRAW 2020 (64-Bit) -->
<svg xmlns="http://www.w3.org/2000/svg" xml:space="preserve" width="11.9879mm" height="11.1016mm" version="1.1" shape-rendering="geometricPrecision" text-rendering="geometricPrecision" image-rendering="optimizeQuality" fill-rule="evenodd" clip-rule="evenodd"
viewBox="0 0 119.35 110.52"
 xmlns:xlink="http://www.w3.org/1999/xlink"
 xmlns:xodm="http://www.corel.com/coreldraw/odm/2003">
 <g id="Layer_x0020_1">
  <metadata id="CorelCorpID_0Corel-Layer"/>
  <path fill="#CCCCCC" fill-opacity="0.600000" stroke="#F00C32" stroke-width="1.99" stroke-miterlimit="22.9256" stroke-opacity="0.600000" d="M65.64 82.89c23.65,-15.41 37.39,-40.5 30.69,-56.04 -6.7,-15.53 -31.3,-15.63 -54.95,-0.22 -23.65,15.41 -37.39,40.5 -30.69,56.04 6.7,15.53 31.3,15.63 54.95,0.22z"/>
  <path fill="black" fill-rule="nonzero" d="M-0 103.38l21.66 -86.38 1.82 -6.33 0 -1.3 -16.21 0c-0.26,0 -0.49,0.23 -0.69,0.72 -0.21,0.49 -0.34,1.21 -0.39,2.14l-1.06 16.57 -3.08 0 0 -28.8 28.62 0 0 6.82 -21.74 86.55 -1.82 6.48 0 1.3 18.42 0c0.27,0 0.5,-0.23 0.71,-0.67 0.22,-0.43 0.36,-1.19 0.43,-2.26l1.06 -18.59 3.08 0 0 30.88 -30.81 0 0 -7.14z"/>
  <path id="1" fill="black" fill-rule="nonzero" d="M36.08 104.8l4.06 -4.31c0.28,-0.26 0.51,-0.69 0.71,-1.27 0.19,-0.61 0.29,-1.45 0.29,-2.52l0 -83.52c0,-1.07 -0.1,-1.91 -0.29,-2.46 -0.2,-0.58 -0.43,-0.98 -0.71,-1.24l-4.06 -3.93 0 -5.55 13.57 0 8.83 72.99 1.31 13.42 0.43 0 10.2 -86.41 13.38 0 0 5.55 -4 3.93c-0.28,0.26 -0.52,0.69 -0.74,1.27 -0.21,0.61 -0.32,1.42 -0.32,2.43l0 83.98c0,1.13 0.1,1.97 0.3,2.54 0.19,0.55 0.45,1.01 0.76,1.3l4 3.79 0 5.73 -15.59 0 0 -5.73 4 -3.79c0.3,-0.26 0.55,-0.67 0.75,-1.27 0.2,-0.58 0.31,-1.45 0.31,-2.57l0 -88.75 -0.5 0 -1.23 11.39 -8.99 73.6 -2.5 17.12 -2.69 0 -10.99 -90.63 -1.22 -11.48 -0.42 0 0 88.29c0,1.13 0.09,1.97 0.28,2.52 0.18,0.52 0.43,0.95 0.72,1.27l3.98 4.31 0 5.73 -13.63 0 0 -5.73z"/>
  <path id="2" fill="black" fill-rule="nonzero" d="M89.65 104.8l4.06 -3.79c0.26,-0.26 0.49,-0.67 0.69,-1.27 0.21,-0.58 0.31,-1.45 0.31,-2.57l0 -83.98c0,-1.07 -0.1,-1.91 -0.29,-2.46 -0.2,-0.58 -0.43,-0.98 -0.71,-1.24l-4.06 -3.93 0 -5.55 15.7 0 0 5.55 -4.08 3.93c-0.28,0.2 -0.52,0.61 -0.72,1.24 -0.21,0.61 -0.31,1.45 -0.31,2.46l0 87.97 13.6 0c0.14,0 0.28,-0.09 0.4,-0.23 0.14,-0.15 0.25,-0.38 0.35,-0.67 0.1,-0.29 0.18,-0.64 0.25,-1.04 0.07,-0.41 0.13,-0.84 0.16,-1.33l1.17 -22.76 3.18 0 0 35.4 -29.7 0 0 -5.73z"/>
 </g>
</svg>
