<?xml version="1.0" encoding="UTF-8"?>
<!DOCTYPE svg PUBLIC "-//W3C//DTD SVG 1.1//EN" "http://www.w3.org/Graphics/SVG/1.1/DTD/svg11.dtd">
<!-- Creator: CorelDRAW 2020 (64-Bit) -->
<svg xmlns="http://www.w3.org/2000/svg" xml:space="preserve" width="40.0999mm" height="46.0684mm" version="1.1" shape-rendering="geometricPrecision" text-rendering="geometricPrecision" image-rendering="optimizeQuality" fill-rule="evenodd" clip-rule="evenodd"
viewBox="0 0 2133 2451"
 xmlns:xlink="http://www.w3.org/1999/xlink"
 xmlns:xodm="http://www.corel.com/coreldraw/odm/2003">
 <g id="Layer_x0020_1">
  <metadata id="CorelCorpID_0Corel-Layer"/>
  <g id="_1866069626208">
   <path fill="#008D83" d="M1297 1643c29,58 72,43 130,130 14,14 29,29 43,43 72,101 86,173 86,303 -115,0 -101,14 -144,-115 -72,-303 -476,-346 -649,-115 -86,130 14,231 -187,231 0,-130 0,-187 101,-303 29,-58 115,-144 173,-159 -29,-29 -58,-43 -86,-72 -144,-115 -187,-202 -187,-389 231,0 58,43 216,245 187,245 634,130 649,-259 115,0 115,-14 115,72 0,72 -58,187 -86,231 -43,87 -101,101 -173,159zm-259 807l58 0 476 -245c202,-115 245,-144 375,-346 159,-216 101,-490 101,-764l-1960 0c0,360 -58,577 173,836 332,404 620,375 778,519z"/>
   <polygon fill="#B4B4B4" points="86,1096 2047,1096 2047,447 1946,447 1946,692 1686,692 1686,447 1456,447 1456,692 1211,692 1211,447 980,447 980,692 706,692 706,447 476,447 476,692 187,692 187,447 86,447 "/>
   <polygon fill="#852028" points="86,447 187,447 187,692 476,692 476,447 706,447 706,692 980,692 980,447 1211,447 1211,692 1456,692 1456,447 1686,447 1686,692 1946,692 1946,447 2047,447 2047,72 86,72 "/>
   <path fill="#B4B4B4" d="M1297 1643c72,-58 130,-72 173,-159 29,-43 86,-159 86,-231 0,-87 0,-72 -115,-72 -14,389 -461,505 -649,259 -159,-202 14,-245 -216,-245 0,187 43,274 187,389 29,29 58,43 86,72 -58,14 -144,101 -173,159 -101,115 -101,173 -101,303 202,0 101,-101 187,-231 173,-231 577,-187 649,115 43,130 29,115 144,115 0,-130 -14,-202 -86,-303 -14,-14 -29,-29 -43,-43 -58,-86 -101,-72 -130,-130z"/>
   <path fill="#FAFAFA" d="M1283 2451l850 0 0 -2451 -951 0c14,14 0,0 29,14l908 0c0,274 0,548 0,822 0,418 72,923 -216,1225 0,0 0,0 -14,0 0,14 0,14 0,14l-101 72c-144,115 -216,144 -375,231l-101 58 -14 14 -14 0z"/>
   <path fill="#FAFAFA" d="M0 2451l865 0c-58,-43 -389,-159 -533,-303 -404,-346 -317,-836 -317,-1341l-14 -418 29 -389 -29 0 0 2451z"/>
  </g>
 </g>
</svg>
