<?xml version="1.0" encoding="UTF-8"?>
<!DOCTYPE svg PUBLIC "-//W3C//DTD SVG 1.1//EN" "http://www.w3.org/Graphics/SVG/1.1/DTD/svg11.dtd">
<!-- Creator: CorelDRAW 2020 (64-Bit) -->
<svg xmlns="http://www.w3.org/2000/svg" xml:space="preserve" width="200px" height="456px" version="1.1" shape-rendering="geometricPrecision" text-rendering="geometricPrecision" image-rendering="optimizeQuality" fill-rule="evenodd" clip-rule="evenodd"
viewBox="0 0 201 458"
 xmlns:xlink="http://www.w3.org/1999/xlink"
 xmlns:xodm="http://www.corel.com/coreldraw/odm/2003">
 <g id="Layer_x0020_1">
  <metadata id="CorelCorpID_0Corel-Layer"/>
  <rect id="RECT" fill="#E6E7E8" width="201" height="458"/>
  <text x="23" y="65" id="TEXT1" fill="black" font-weight="normal" font-size="21px" font-family="Arial"></text>  
  <text x="19" y="389" id="TEXT2" fill="black" font-weight="normal" font-size="22px" font-family="Arial"></text>
  <g id="_2111993744048">
   <path fill="none" d="M47 331c0,2 2,4 5,4l96 0c2,0 4,-2 5,-4l-106 0 0 0zm101 7l-96 0c-4,0 -8,-4 -8,-8l0 -1c0,-1 1,-2 2,-2l109 0c1,0 2,1 2,2l0 1c0,4 -4,8 -8,8l0 0 0 0z"/>
   <path fill="white" stroke="black" stroke-width="2" stroke-linejoin="round" stroke-miterlimit="22.9256" d="M150 233l26 -2c0,0 5,66 0,72 -5,7 -28,15 -28,15l1 -22 5 -1 -3 -62 0 0z"/>
   <path fill="white" stroke="black" stroke-width="2" stroke-linejoin="round" stroke-miterlimit="22.9256" d="M49 238l-23 -1c0,0 -8,65 -3,72 5,7 28,9 28,9l-1 -17 -5 -1 3 -62 0 0z"/>
   <path fill="#0080BF" stroke="#101010" stroke-width="2" stroke-linejoin="round" stroke-miterlimit="22.9256" d="M47 250l-25 -7c0,0 1,-1 1,-1 0,-1 -1,-2 -2,-2 -1,0 -2,1 -2,2 0,1 0,1 1,1l5 -25c2,-12 11,-22 23,-24l53 -13 1 0 52 13c12,3 21,13 23,25l4 24c0,1 0,2 -1,2l-27 8 3 57c0,1 0,1 -1,1 -1,1 -36,21 -54,21l-1 0c-18,-1 -50,-14 -52,-15 1,0 1,-1 1,-1 0,-1 -1,-2 -2,-2 -1,0 -2,1 -2,2 0,1 0,1 1,1l0 -64 1 -3 0 0z"/>
   <ellipse fill="black" stroke="black" stroke-width="1" stroke-linejoin="round" stroke-miterlimit="22.9256" transform="matrix(0.384161 0.0565901 -0.0642282 0.436047 98.7678 241.711)" rx="54" ry="48"/>
   <g id="_2477652188176">
    <path fill="white" fill-rule="nonzero" d="M122 242l2 -3 -2 -6 -8 6 -1 -3 7 -8 -2 -5c1,-1 1,-1 2,-1l0 0c0,0 1,0 1,0 1,0 1,1 1,1l2 5 10 1 1 3 -10 1 2 6 4 0 1 3 -5 0 -1 0 -1 1 -4 3 -1 -3 1 -3 0 0z"/>
   </g>
   <path fill="white" stroke="black" stroke-width="2" stroke-linejoin="round" stroke-miterlimit="22.9256" d="M123 168c0,3 -4,16 -25,17 -11,0 -23,-14 -23,-16l-2 -13 0 0c-4,0 -6,-3 -6,-6l0 -4c0,-3 2,-6 5,-6 1,-16 13,-34 27,-35 14,0 26,19 27,34l2 0c2,0 3,1 3,3l0 8c0,3 -3,6 -6,6l-2 13 0 0 0 0z"/>
   <g id="_2477652189664">
    <path fill="#C9C9C9" stroke="black" stroke-width="2" stroke-linejoin="round" stroke-miterlimit="22.9256" d="M151 339l-102 0c-3,0 -6,-2 -6,-6l-8 -57 115 0 -8 57c-2,1 -3,3 -3,6 0,4 3,7 6,7 3,0 6,-3 6,-7 0,-3 -1,-5 -3,-6l4 6 0 0z"/>
   </g>
  </g>
 </g>
</svg>
