<?xml version="1.0" encoding="UTF-8"?>
<!DOCTYPE svg PUBLIC "-//W3C//DTD SVG 1.1//EN" "http://www.w3.org/Graphics/SVG/1.1/DTD/svg11.dtd">
<!-- Creator: CorelDRAW 2020 (64-Bit) -->
<svg xmlns="http://www.w3.org/2000/svg" xml:space="preserve" width="200px" height="456px" version="1.1" shape-rendering="geometricPrecision" text-rendering="geometricPrecision" image-rendering="optimizeQuality" fill-rule="evenodd" clip-rule="evenodd"
viewBox="0 0 201 458"
 xmlns:xlink="http://www.w3.org/1999/xlink"
 xmlns:xodm="http://www.corel.com/coreldraw/odm/2003">
 <g id="Layer_x0020_1">
  <metadata id="CorelCorpID_0Corel-Layer"/>
  <rect id="RECT" fill="#E6E7E8" width="201" height="458"/>
  <text x="23" y="65" id="TEXT1" fill="black" font-weight="normal" font-size="21px" font-family="Arial"></text>
  <text x="19" y="389" id="TEXT2" fill="black" font-weight="normal" font-size="22px" font-family="Arial"></text>  
  <g id="mainicon">
   <path id="Hiking" fill="black" fill-rule="nonzero" d="M112 99c-20,0 -35,16 -35,35 0,20 16,35 35,35 20,0 35,-16 35,-35 0,-20 -16,-35 -35,-35zm0 21c8,0 15,6 15,15 0,8 -6,15 -15,15 -8,0 -15,-6 -15,-15 0,-8 6,-15 15,-15zm-54 46c-3,0 -5,0 -8,0 -5,1 -11,4 -15,7 -9,7 -14,20 -18,37 -1,5 -1,12 2,16 3,4 7,7 11,9 7,4 15,4 19,5l4 -20c-6,-2 -12,-3 -15,-4 -2,-1 -2,-1 -2,-1 0,0 0,-1 0,-2 4,-15 8,-22 12,-25 4,-3 6,-4 12,-2l4 -20c-3,-1 -5,-1 -8,-1l2 -1zm18 3l-15 67c-2,7 2,16 7,21l36 28 9 57 21 0 -10 -61c-1,-5 -4,-10 -7,-12l-36 -28 11 -46 11 3 18 17c5,5 14,7 22,4l16 -7 0 131 21 0 0 -170 -21 0 0 18 -24 11 -18 -17c-3,-3 -5,-4 -9,-5l-31 -8zm-13 98l-8 25 -25 49 22 0 21 -39c1,-1 1,-2 1,-4l6 -19 -17 -13 0 1z"/>
  </g>
 </g>
</svg>
